<mxfile host="app.diagrams.net" modified="2024-04-23T08:01:53.778Z" agent="Mozilla/5.0 (Windows NT 10.0; Win64; x64) AppleWebKit/537.36 (KHTML, like Gecko) Chrome/124.0.0.0 Safari/537.36" etag="d_RreKwfgOqfKqV3lWjY" version="24.2.8" type="device">
  <diagram name="Page-1" id="Tp38adMMMFgdPORCxGuP">
    <mxGraphModel dx="913" dy="530" grid="1" gridSize="10" guides="1" tooltips="1" connect="1" arrows="1" fold="1" page="1" pageScale="1" pageWidth="850" pageHeight="1100" background="#000000" math="0" shadow="0">
      <root>
        <mxCell id="0" />
        <mxCell id="1" parent="0" />
        <mxCell id="AOXKAMfLtgICsUlG0zG9-1" value="Start" style="html=1;overflow=block;blockSpacing=1;whiteSpace=wrap;fontSize=16.7;fontColor=#ffffff;spacing=3.8;strokeColor=#005700;rounded=1;absoluteArcSize=1;arcSize=120;fillColor=#008a00;strokeWidth=NaN;lucidId=39wL1MRaq2_O;" parent="1" vertex="1">
          <mxGeometry x="788.5" y="40" width="120" height="60" as="geometry" />
        </mxCell>
        <mxCell id="1IPj_0rLIIHMVuYiqB3O-1" style="edgeStyle=orthogonalEdgeStyle;rounded=0;orthogonalLoop=1;jettySize=auto;html=1;exitX=1;exitY=0.5;exitDx=0;exitDy=0;entryX=1;entryY=0.5;entryDx=0;entryDy=0;strokeColor=#FF0000;strokeWidth=3;" parent="1" source="AOXKAMfLtgICsUlG0zG9-2" target="g5nIgpSyBO7zvrrquqHm-1" edge="1">
          <mxGeometry relative="1" as="geometry">
            <Array as="points">
              <mxPoint x="1010" y="425" />
              <mxPoint x="1010" y="305" />
            </Array>
          </mxGeometry>
        </mxCell>
        <mxCell id="1IPj_0rLIIHMVuYiqB3O-2" value="Invalid Input" style="edgeLabel;html=1;align=center;verticalAlign=middle;resizable=0;points=[];fontColor=#FFFFFF;labelBackgroundColor=#000000;" parent="1IPj_0rLIIHMVuYiqB3O-1" vertex="1" connectable="0">
          <mxGeometry x="-0.0054" y="-1" relative="1" as="geometry">
            <mxPoint x="-61" y="49" as="offset" />
          </mxGeometry>
        </mxCell>
        <mxCell id="AOXKAMfLtgICsUlG0zG9-2" value="&lt;font style=&quot;font-size: 12px;&quot;&gt;Input Check&lt;/font&gt;" style="html=1;overflow=block;blockSpacing=1;whiteSpace=wrap;rhombus;fontSize=16.7;fontColor=#ffffff;spacing=3.8;strokeColor=#006EAF;rounded=1;absoluteArcSize=1;arcSize=9;fillColor=#1ba1e2;strokeWidth=NaN;lucidId=39wLGG56x5rx;" parent="1" vertex="1">
          <mxGeometry x="801.97" y="390" width="93.06" height="70" as="geometry" />
        </mxCell>
        <mxCell id="AOXKAMfLtgICsUlG0zG9-4" value="" style="html=1;jettySize=18;whiteSpace=wrap;overflow=block;blockSpacing=1;fontSize=13;strokeColor=#FFFFFF;strokeOpacity=100;strokeWidth=3;rounded=1;arcSize=12;edgeStyle=orthogonalEdgeStyle;startArrow=none;endArrow=block;endFill=1;exitX=0.5;exitY=1.006;exitPerimeter=0;entryX=0.5;entryY=-0.004;entryPerimeter=0;lucidId=39wLUXoq_lXd;fillColor=#1ba1e2;" parent="1" source="AOXKAMfLtgICsUlG0zG9-1" target="AOXKAMfLtgICsUlG0zG9-8" edge="1">
          <mxGeometry width="100" height="100" relative="1" as="geometry">
            <Array as="points" />
          </mxGeometry>
        </mxCell>
        <mxCell id="AOXKAMfLtgICsUlG0zG9-5" value="" style="html=1;jettySize=18;whiteSpace=wrap;overflow=block;blockSpacing=1;fontSize=13;strokeColor=#FFFFFF;strokeOpacity=100;strokeWidth=3;rounded=1;arcSize=12;edgeStyle=orthogonalEdgeStyle;startArrow=none;endArrow=block;endFill=1;exitX=0.5;exitY=1.004;exitPerimeter=0;entryX=0.5;entryY=0.002;entryPerimeter=0;lucidId=39wLFfeJ~EYN;fillColor=#1ba1e2;" parent="1" source="g5nIgpSyBO7zvrrquqHm-1" target="AOXKAMfLtgICsUlG0zG9-2" edge="1">
          <mxGeometry width="100" height="100" relative="1" as="geometry">
            <Array as="points" />
          </mxGeometry>
        </mxCell>
        <mxCell id="AOXKAMfLtgICsUlG0zG9-6" value="" style="html=1;jettySize=18;whiteSpace=wrap;overflow=block;blockSpacing=1;fontSize=13;strokeColor=#005700;strokeOpacity=100;strokeWidth=3;rounded=1;arcSize=12;edgeStyle=orthogonalEdgeStyle;startArrow=none;endArrow=block;endFill=1;exitX=0.5;exitY=0.998;exitPerimeter=0;entryX=0.5;entryY=0;entryPerimeter=0;lucidId=39wLRLaOBurm;fillColor=#008a00;entryDx=0;entryDy=0;" parent="1" source="AOXKAMfLtgICsUlG0zG9-2" target="AOXKAMfLtgICsUlG0zG9-27" edge="1">
          <mxGeometry width="100" height="100" relative="1" as="geometry">
            <mxPoint x="191.5" y="507.6399999999999" as="targetPoint" />
            <Array as="points">
              <mxPoint x="848" y="490" />
              <mxPoint x="455" y="490" />
            </Array>
          </mxGeometry>
        </mxCell>
        <mxCell id="AOXKAMfLtgICsUlG0zG9-7" value="Choice Number 1" style="text;html=1;resizable=0;labelBackgroundColor=#000000;align=center;verticalAlign=middle;fontStyle=1;fontColor=#FFFFFF;fontSize=13.3;" parent="AOXKAMfLtgICsUlG0zG9-6" vertex="1">
          <mxGeometry x="0.9240520812517814" relative="1" as="geometry">
            <mxPoint y="-20" as="offset" />
          </mxGeometry>
        </mxCell>
        <mxCell id="AOXKAMfLtgICsUlG0zG9-8" value="Display Travel Journal Menu" style="html=1;overflow=block;blockSpacing=1;whiteSpace=wrap;fontSize=16.7;spacing=9;strokeColor=#006EAF;rounded=1;absoluteArcSize=1;arcSize=9;fillColor=#1ba1e2;strokeWidth=NaN;lucidId=39wLnJ_wp2-h;fontColor=#ffffff;" parent="1" vertex="1">
          <mxGeometry x="782.5" y="130" width="132" height="90" as="geometry" />
        </mxCell>
        <mxCell id="AOXKAMfLtgICsUlG0zG9-13" value="" style="html=1;jettySize=18;whiteSpace=wrap;fontSize=13.3;fontColor=#333333;fontStyle=1;strokeColor=#005700;strokeOpacity=100;strokeWidth=3;rounded=1;arcSize=12;edgeStyle=orthogonalEdgeStyle;startArrow=none;endArrow=block;endFill=1;exitX=0.5;exitY=0.998;exitPerimeter=0;entryX=0.5;entryY=0;entryPerimeter=0;lucidId=Q2avhE32~0ku;fillColor=#008a00;entryDx=0;entryDy=0;" parent="1" source="AOXKAMfLtgICsUlG0zG9-2" target="AOXKAMfLtgICsUlG0zG9-28" edge="1">
          <mxGeometry width="100" height="100" relative="1" as="geometry">
            <Array as="points">
              <mxPoint x="848" y="490" />
              <mxPoint x="615" y="490" />
            </Array>
            <mxPoint x="431.1400000000001" y="507.64" as="targetPoint" />
          </mxGeometry>
        </mxCell>
        <mxCell id="AOXKAMfLtgICsUlG0zG9-14" value="Choice Number 2" style="text;html=1;resizable=0;labelBackgroundColor=#000000;align=center;verticalAlign=middle;fontStyle=1;fontColor=#FFFFFF;fontSize=13.3;" parent="AOXKAMfLtgICsUlG0zG9-13" vertex="1">
          <mxGeometry x="0.8852501595275064" relative="1" as="geometry">
            <mxPoint y="-18" as="offset" />
          </mxGeometry>
        </mxCell>
        <mxCell id="AOXKAMfLtgICsUlG0zG9-15" value="" style="html=1;jettySize=18;whiteSpace=wrap;fontSize=13.3;fontColor=#333333;fontStyle=1;strokeColor=#005700;strokeOpacity=100;strokeWidth=3;rounded=1;arcSize=12;edgeStyle=orthogonalEdgeStyle;startArrow=none;endArrow=block;endFill=1;exitX=0.5;exitY=0.998;exitPerimeter=0;entryX=0.5;entryY=0;entryPerimeter=0;lucidId=E3av-h~LvY7t;fillColor=#008a00;entryDx=0;entryDy=0;" parent="1" source="AOXKAMfLtgICsUlG0zG9-2" target="AOXKAMfLtgICsUlG0zG9-29" edge="1">
          <mxGeometry width="100" height="100" relative="1" as="geometry">
            <Array as="points">
              <mxPoint x="848" y="490" />
              <mxPoint x="775" y="490" />
            </Array>
            <mxPoint x="712" y="507.64" as="targetPoint" />
          </mxGeometry>
        </mxCell>
        <mxCell id="AOXKAMfLtgICsUlG0zG9-16" value="Choice Number 3" style="text;html=1;resizable=0;labelBackgroundColor=#000000;align=center;verticalAlign=middle;fontStyle=1;fontColor=#FFFFFF;fontSize=13.3;" parent="AOXKAMfLtgICsUlG0zG9-15" vertex="1">
          <mxGeometry x="0.7653849066170326" relative="1" as="geometry">
            <mxPoint y="-16" as="offset" />
          </mxGeometry>
        </mxCell>
        <mxCell id="AOXKAMfLtgICsUlG0zG9-17" value="" style="html=1;jettySize=18;whiteSpace=wrap;fontSize=13.3;fontColor=#333333;fontStyle=1;strokeColor=#005700;strokeOpacity=100;strokeWidth=3;rounded=1;arcSize=12;edgeStyle=orthogonalEdgeStyle;startArrow=none;endArrow=block;endFill=1;exitX=0.5;exitY=0.998;exitPerimeter=0;entryX=0.5;entryY=0;entryPerimeter=0;lucidId=.3av.siftXe3;fillColor=#008a00;entryDx=0;entryDy=0;" parent="1" source="AOXKAMfLtgICsUlG0zG9-2" target="AOXKAMfLtgICsUlG0zG9-31" edge="1">
          <mxGeometry width="100" height="100" relative="1" as="geometry">
            <Array as="points">
              <mxPoint x="848" y="490" />
              <mxPoint x="935" y="490" />
            </Array>
            <mxPoint x="978.5" y="507.64" as="targetPoint" />
          </mxGeometry>
        </mxCell>
        <mxCell id="AOXKAMfLtgICsUlG0zG9-18" value="Choice Number 4" style="text;html=1;resizable=0;labelBackgroundColor=#000000;align=center;verticalAlign=middle;fontStyle=1;fontColor=#FFFFFF;fontSize=13.3;" parent="AOXKAMfLtgICsUlG0zG9-17" vertex="1">
          <mxGeometry x="0.7653849066170326" relative="1" as="geometry">
            <mxPoint y="-14" as="offset" />
          </mxGeometry>
        </mxCell>
        <mxCell id="AOXKAMfLtgICsUlG0zG9-19" value="" style="html=1;jettySize=18;whiteSpace=wrap;fontSize=13.3;fontColor=#333333;fontStyle=1;strokeColor=#005700;strokeOpacity=100;strokeWidth=3;rounded=1;arcSize=12;edgeStyle=orthogonalEdgeStyle;startArrow=none;endArrow=block;endFill=1;exitX=0.5;exitY=0.998;exitPerimeter=0;entryX=0.5;entryY=0;entryPerimeter=0;lucidId=h4avc9kdezYn;fillColor=#008a00;entryDx=0;entryDy=0;" parent="1" source="AOXKAMfLtgICsUlG0zG9-2" target="AOXKAMfLtgICsUlG0zG9-32" edge="1">
          <mxGeometry width="100" height="100" relative="1" as="geometry">
            <Array as="points">
              <mxPoint x="848" y="490" />
              <mxPoint x="1095" y="490" />
            </Array>
            <mxPoint x="1198.5" y="507.6400000000001" as="targetPoint" />
          </mxGeometry>
        </mxCell>
        <mxCell id="AOXKAMfLtgICsUlG0zG9-20" value="Choice Number 5" style="text;html=1;resizable=0;labelBackgroundColor=#000000;align=center;verticalAlign=middle;fontStyle=1;fontColor=#FFFFFF;fontSize=13.3;" parent="AOXKAMfLtgICsUlG0zG9-19" vertex="1">
          <mxGeometry x="0.8852501595275064" relative="1" as="geometry">
            <mxPoint y="-18" as="offset" />
          </mxGeometry>
        </mxCell>
        <mxCell id="AOXKAMfLtgICsUlG0zG9-21" style="edgeStyle=orthogonalEdgeStyle;rounded=0;orthogonalLoop=1;jettySize=auto;html=1;entryX=0;entryY=0.5;entryDx=0;entryDy=0;strokeColor=#FFFFFF;strokeWidth=3;exitX=1;exitY=0.5;exitDx=0;exitDy=0;" parent="1" source="AOXKAMfLtgICsUlG0zG9-36" target="AOXKAMfLtgICsUlG0zG9-25" edge="1">
          <mxGeometry relative="1" as="geometry">
            <mxPoint x="1350" y="580" as="sourcePoint" />
            <mxPoint x="1380" y="595" as="targetPoint" />
          </mxGeometry>
        </mxCell>
        <mxCell id="AOXKAMfLtgICsUlG0zG9-23" value="" style="html=1;jettySize=18;whiteSpace=wrap;fontSize=13.3;fontColor=#333333;fontStyle=1;strokeColor=#005700;strokeOpacity=100;strokeWidth=3;rounded=1;arcSize=12;edgeStyle=orthogonalEdgeStyle;startArrow=none;endArrow=block;endFill=1;exitX=0.5;exitY=0.998;exitPerimeter=0;entryX=0.5;entryY=0;lucidId=c7avUJEq6.oB;fillColor=#008a00;entryDx=0;entryDy=0;" parent="1" source="AOXKAMfLtgICsUlG0zG9-2" target="AOXKAMfLtgICsUlG0zG9-36" edge="1">
          <mxGeometry width="100" height="100" relative="1" as="geometry">
            <Array as="points">
              <mxPoint x="848" y="490" />
              <mxPoint x="1256" y="490" />
            </Array>
            <mxPoint x="1255" y="550" as="targetPoint" />
          </mxGeometry>
        </mxCell>
        <mxCell id="AOXKAMfLtgICsUlG0zG9-24" value="Choice Number 6" style="text;html=1;resizable=0;labelBackgroundColor=#000000;align=center;verticalAlign=middle;fontStyle=1;fontColor=#FFFFFF;fontSize=13.3;" parent="AOXKAMfLtgICsUlG0zG9-23" vertex="1">
          <mxGeometry x="0.9240520812517814" relative="1" as="geometry">
            <mxPoint y="-19" as="offset" />
          </mxGeometry>
        </mxCell>
        <mxCell id="AOXKAMfLtgICsUlG0zG9-25" value="End" style="html=1;overflow=block;blockSpacing=1;whiteSpace=wrap;fontSize=16.7;fontColor=#ffffff;spacing=3.8;strokeColor=none;rounded=1;absoluteArcSize=1;arcSize=120;fillColor=#FF0000;strokeWidth=NaN;lucidId=39wL1MRaq2_O;" parent="1" vertex="1">
          <mxGeometry x="1380" y="565" width="120" height="60" as="geometry" />
        </mxCell>
        <mxCell id="AOXKAMfLtgICsUlG0zG9-27" value="&lt;span style=&quot;color: rgb(255, 255, 255); font-size: 16px; text-wrap: wrap;&quot;&gt;Execute Add Journal Function&lt;/span&gt;" style="verticalLabelPosition=middle;verticalAlign=middle;html=1;shape=mxgraph.flowchart.on-page_reference;fillColor=#000000;strokeColor=#FFFFFF;strokeWidth=10;labelPosition=center;align=center;fontSize=16;" parent="1" vertex="1">
          <mxGeometry x="400" y="550" width="110" height="110" as="geometry" />
        </mxCell>
        <mxCell id="AOXKAMfLtgICsUlG0zG9-28" value="&lt;span style=&quot;color: rgb(255, 255, 255); font-size: 16px; text-wrap: wrap;&quot;&gt;Execute Show Journal Function&lt;/span&gt;" style="verticalLabelPosition=middle;verticalAlign=middle;html=1;shape=mxgraph.flowchart.on-page_reference;fillColor=#000000;strokeColor=#FFFFFF;strokeWidth=10;labelPosition=center;align=center;fontSize=16;" parent="1" vertex="1">
          <mxGeometry x="560" y="550" width="110" height="110" as="geometry" />
        </mxCell>
        <mxCell id="AOXKAMfLtgICsUlG0zG9-29" value="&lt;span style=&quot;color: rgb(255, 255, 255); font-size: 16px; text-wrap: wrap;&quot;&gt;Execute Edit Journal Function&lt;/span&gt;" style="verticalLabelPosition=middle;verticalAlign=middle;html=1;shape=mxgraph.flowchart.on-page_reference;fillColor=#000000;strokeColor=#FFFFFF;strokeWidth=10;labelPosition=center;align=center;fontSize=16;" parent="1" vertex="1">
          <mxGeometry x="720" y="550" width="110" height="110" as="geometry" />
        </mxCell>
        <mxCell id="AOXKAMfLtgICsUlG0zG9-31" value="&lt;span style=&quot;color: rgb(255, 255, 255); font-size: 16px; text-wrap: wrap;&quot;&gt;Execute Delete Journal Function&lt;/span&gt;" style="verticalLabelPosition=middle;verticalAlign=middle;html=1;shape=mxgraph.flowchart.on-page_reference;fillColor=#000000;strokeColor=#FFFFFF;strokeWidth=10;labelPosition=center;align=center;fontSize=16;" parent="1" vertex="1">
          <mxGeometry x="880" y="550" width="110" height="110" as="geometry" />
        </mxCell>
        <mxCell id="AOXKAMfLtgICsUlG0zG9-32" value="&lt;span style=&quot;color: rgb(255, 255, 255); font-size: 16px; text-wrap: wrap;&quot;&gt;Execute Additional Features Function&lt;/span&gt;" style="verticalLabelPosition=middle;verticalAlign=middle;html=1;shape=mxgraph.flowchart.on-page_reference;fillColor=#000000;strokeColor=#FFFFFF;strokeWidth=10;labelPosition=center;align=center;fontSize=16;" parent="1" vertex="1">
          <mxGeometry x="1040" y="550" width="110" height="110" as="geometry" />
        </mxCell>
        <mxCell id="AOXKAMfLtgICsUlG0zG9-36" value="&lt;span style=&quot;font-size: 18px;&quot;&gt;Execute Exit Function&lt;/span&gt;" style="html=1;overflow=block;blockSpacing=1;whiteSpace=wrap;fontSize=16.7;spacing=9;strokeColor=#006EAF;rounded=1;absoluteArcSize=1;arcSize=9;fillColor=#1ba1e2;strokeWidth=NaN;lucidId=39wLnJ_wp2-h;fontColor=#ffffff;" parent="1" vertex="1">
          <mxGeometry x="1190" y="550" width="132" height="90" as="geometry" />
        </mxCell>
        <mxCell id="AOXKAMfLtgICsUlG0zG9-37" value="" style="html=1;overflow=block;blockSpacing=1;whiteSpace=wrap;fontSize=16.7;spacing=9;strokeColor=none;rounded=1;absoluteArcSize=1;arcSize=9;fillColor=none;strokeWidth=NaN;lucidId=39wLnJ_wp2-h;fontColor=#ffffff;" parent="1" vertex="1">
          <mxGeometry x="780" width="132" height="30" as="geometry" />
        </mxCell>
        <mxCell id="g5nIgpSyBO7zvrrquqHm-2" value="" style="html=1;jettySize=18;whiteSpace=wrap;overflow=block;blockSpacing=1;fontSize=13;strokeColor=#FFFFFF;strokeOpacity=100;strokeWidth=3;rounded=1;arcSize=12;edgeStyle=orthogonalEdgeStyle;startArrow=none;endArrow=block;endFill=1;exitX=0.5;exitY=1.004;exitPerimeter=0;entryX=0.5;entryY=0.002;entryPerimeter=0;lucidId=39wLFfeJ~EYN;fillColor=#1ba1e2;" edge="1" parent="1" source="AOXKAMfLtgICsUlG0zG9-8" target="g5nIgpSyBO7zvrrquqHm-1">
          <mxGeometry width="100" height="100" relative="1" as="geometry">
            <Array as="points" />
            <mxPoint x="849" y="220" as="sourcePoint" />
            <mxPoint x="848" y="340" as="targetPoint" />
          </mxGeometry>
        </mxCell>
        <mxCell id="g5nIgpSyBO7zvrrquqHm-1" value="Input Menu Choice" style="html=1;overflow=block;blockSpacing=1;whiteSpace=wrap;fontSize=16.7;spacing=9;strokeColor=#006EAF;rounded=1;absoluteArcSize=1;arcSize=9;fillColor=#1ba1e2;strokeWidth=NaN;lucidId=39wLnJ_wp2-h;fontColor=#ffffff;" vertex="1" parent="1">
          <mxGeometry x="782.5" y="260" width="132" height="90" as="geometry" />
        </mxCell>
      </root>
    </mxGraphModel>
  </diagram>
</mxfile>
